<?xml version="1.0" encoding="UTF-8"?> <svg xmlns="http://www.w3.org/2000/svg" width="148" height="38" viewBox="0 0 148 38" fill="none"><rect width="148" height="38" rx="19" fill="white"></rect><path d="M23.2577 11.0912C24.0227 9.73386 25.9773 9.73386 26.7423 11.0911L28.042 13.397C28.3274 13.9034 28.819 14.2605 29.3887 14.3755L31.9834 14.899C33.5106 15.2072 34.1146 17.066 33.0602 18.2131L31.2688 20.1617C30.8754 20.5896 30.6876 21.1675 30.7544 21.7449L31.0583 24.3743C31.2371 25.922 29.6559 27.0709 28.2392 26.4225L25.8323 25.3209C25.3038 25.079 24.6962 25.079 24.1677 25.3209L21.7608 26.4225C20.3441 27.0709 18.7629 25.922 18.9417 24.3743L19.2456 21.7449C19.3124 21.1675 19.1246 20.5896 18.7312 20.1617L16.9398 18.2131C15.8854 17.0661 16.4894 15.2072 18.0166 14.899L20.6113 14.3755C21.181 14.2605 21.6726 13.9034 21.958 13.397L23.2577 11.0912Z" fill="#B4F131"></path><path d="M47.2577 11.0912C48.0227 9.73386 49.9773 9.73386 50.7423 11.0911L52.042 13.397C52.3274 13.9034 52.819 14.2605 53.3887 14.3755L55.9834 14.899C57.5106 15.2072 58.1146 17.066 57.0602 18.2131L55.2688 20.1617C54.8754 20.5896 54.6876 21.1675 54.7544 21.7449L55.0583 24.3743C55.2371 25.922 53.6559 27.0709 52.2392 26.4225L49.8323 25.3209C49.3038 25.079 48.6962 25.079 48.1677 25.3209L45.7608 26.4225C44.3441 27.0709 42.7629 25.922 42.9417 24.3743L43.2456 21.7449C43.3124 21.1675 43.1246 20.5896 42.7312 20.1617L40.9398 18.2131C39.8854 17.0661 40.4894 15.2072 42.0166 14.899L44.6113 14.3755C45.181 14.2605 45.6726 13.9034 45.958 13.397L47.2577 11.0912Z" fill="#B4F131"></path><path d="M71.2577 11.0912C72.0227 9.73386 73.9773 9.73386 74.7423 11.0911L76.042 13.397C76.3274 13.9034 76.819 14.2605 77.3887 14.3755L79.9834 14.899C81.5106 15.2072 82.1146 17.066 81.0602 18.2131L79.2688 20.1617C78.8754 20.5896 78.6876 21.1675 78.7544 21.7449L79.0583 24.3743C79.2371 25.922 77.6559 27.0709 76.2392 26.4225L73.8323 25.3209C73.3038 25.079 72.6962 25.079 72.1677 25.3209L69.7608 26.4225C68.3441 27.0709 66.7629 25.922 66.9417 24.3743L67.2456 21.7449C67.3124 21.1675 67.1246 20.5896 66.7312 20.1617L64.9398 18.2131C63.8854 17.0661 64.4894 15.2072 66.0166 14.899L68.6113 14.3755C69.181 14.2605 69.6726 13.9034 69.958 13.397L71.2577 11.0912Z" fill="#B4F131"></path><path d="M95.2577 11.0912C96.0227 9.73386 97.9773 9.73386 98.7423 11.0911L100.042 13.397C100.327 13.9034 100.819 14.2605 101.389 14.3755L103.983 14.899C105.511 15.2072 106.115 17.066 105.06 18.2131L103.269 20.1617C102.875 20.5896 102.688 21.1675 102.754 21.7449L103.058 24.3743C103.237 25.922 101.656 27.0709 100.239 26.4225L97.8323 25.3209C97.3038 25.079 96.6962 25.079 96.1677 25.3209L93.7608 26.4225C92.3441 27.0709 90.7629 25.922 90.9417 24.3743L91.2456 21.7449C91.3124 21.1675 91.1246 20.5896 90.7312 20.1617L88.9398 18.2131C87.8854 17.0661 88.4894 15.2072 90.0166 14.899L92.6113 14.3755C93.181 14.2605 93.6726 13.9034 93.958 13.397L95.2577 11.0912Z" fill="#B4F131"></path><path d="M119.258 11.0912C120.023 9.73386 121.977 9.73386 122.742 11.0911L124.042 13.397C124.327 13.9034 124.819 14.2605 125.389 14.3755L127.983 14.899C129.511 15.2072 130.115 17.066 129.06 18.2131L127.269 20.1617C126.875 20.5896 126.688 21.1675 126.754 21.7449L127.058 24.3743C127.237 25.922 125.656 27.0709 124.239 26.4225L121.832 25.3209C121.304 25.079 120.696 25.079 120.168 25.3209L117.761 26.4225C116.344 27.0709 114.763 25.922 114.942 24.3743L115.246 21.7449C115.312 21.1675 115.125 20.5896 114.731 20.1617L112.94 18.2131C111.885 17.0661 112.489 15.2072 114.017 14.899L116.611 14.3755C117.181 14.2605 117.673 13.9034 117.958 13.397L119.258 11.0912Z" fill="#B4F131"></path></svg> 