<?xml version="1.0" encoding="UTF-8"?> <svg xmlns="http://www.w3.org/2000/svg" width="60" height="60" viewBox="0 0 60 60" fill="none"><rect width="60" height="60" rx="18" fill="url(#paint0_linear_3765_22344)"></rect><path d="M29.984 14C21.152 14 14 21.168 14 30C14 38.832 21.152 46 29.984 46C38.832 46 46 38.832 46 30C46 21.168 38.832 14 29.984 14ZM35.152 38.624L30 35.52L24.848 38.624C24.24 38.992 23.488 38.448 23.648 37.76L25.008 31.904L20.48 27.984C19.952 27.52 20.24 26.64 20.944 26.576L26.928 26.064L29.264 20.544C29.536 19.888 30.464 19.888 30.736 20.544L33.072 26.048L39.056 26.56C39.76 26.624 40.048 27.504 39.504 27.968L34.976 31.888L36.336 37.76C36.496 38.448 35.76 38.992 35.152 38.624Z" fill="white"></path><defs><linearGradient id="paint0_linear_3765_22344" x1="11.2961" y1="54.5216" x2="92.0568" y2="25.148" gradientUnits="userSpaceOnUse"><stop stop-color="#FF4F28"></stop><stop offset="1" stop-color="#D3FF74"></stop></linearGradient></defs></svg> 