<?xml version="1.0" encoding="UTF-8"?> <svg xmlns="http://www.w3.org/2000/svg" width="60" height="60" viewBox="0 0 60 60" fill="none"><rect width="60" height="60" rx="18" fill="url(#paint0_linear_3765_22340)"></rect><path d="M46 30.5032L42.4509 26.445L42.9455 21.0777L37.6945 19.885L34.9455 15.2305L30 17.3541L25.0545 15.2305L22.3055 19.8705L17.0545 21.0487L17.5491 26.4305L14 30.5032L17.5491 34.5614L17.0545 39.9432L22.3055 41.1359L25.0545 45.7759L30 43.6377L34.9455 45.7614L37.6945 41.1214L42.9455 39.9286L42.4509 34.5614L46 30.5032ZM26.1891 36.3359L22.7273 32.845C22.16 32.2777 22.16 31.3614 22.7273 30.7941L22.8291 30.6923C23.3964 30.125 24.3273 30.125 24.8945 30.6923L27.2364 33.0486L34.7273 25.5432C35.2945 24.9759 36.2255 24.9759 36.7927 25.5432L36.8945 25.645C37.4618 26.2123 37.4618 27.1286 36.8945 27.6959L28.2836 36.3359C27.6873 36.9032 26.7709 36.9032 26.1891 36.3359Z" fill="white"></path><defs><linearGradient id="paint0_linear_3765_22340" x1="11.2961" y1="54.5216" x2="92.0568" y2="25.148" gradientUnits="userSpaceOnUse"><stop stop-color="#FF4F28"></stop><stop offset="1" stop-color="#D3FF74"></stop></linearGradient></defs></svg> 