<?xml version="1.0" encoding="UTF-8"?> <svg xmlns="http://www.w3.org/2000/svg" width="126" height="50" viewBox="0 0 126 50" fill="none"><circle cx="63" cy="25" r="25" fill="#FF4F28"></circle><circle cx="14.5" cy="25.5" r="14.5" fill="#FF4F28"></circle><circle cx="111.5" cy="25.5" r="14.5" fill="#FF4F28"></circle><path d="M70 17H65.82C65.4 15.84 64.3 15 63 15C61.7 15 60.6 15.84 60.18 17H56C54.9 17 54 17.9 54 19V33C54 34.1 54.9 35 56 35H70C71.1 35 72 34.1 72 33V19C72 17.9 71.1 17 70 17ZM63 17C63.55 17 64 17.45 64 18C64 18.55 63.55 19 63 19C62.45 19 62 18.55 62 18C62 17.45 62.45 17 63 17ZM60.29 30.29L57.7 27.7C57.31 27.31 57.31 26.68 57.7 26.29C58.09 25.9 58.72 25.9 59.11 26.29L61 28.17L66.88 22.29C67.27 21.9 67.9 21.9 68.29 22.29C68.68 22.68 68.68 23.31 68.29 23.7L61.7 30.29C61.32 30.68 60.68 30.68 60.29 30.29Z" fill="white"></path></svg> 