<?xml version="1.0" encoding="UTF-8"?> <svg xmlns="http://www.w3.org/2000/svg" width="40" height="40" viewBox="0 0 40 40" fill="none"><rect width="40" height="40" rx="8" fill="#FF4F28"></rect><path fill-rule="evenodd" clip-rule="evenodd" d="M28.5276 13.2769C28.2975 12.6524 27.9899 12.1226 27.4895 11.5944C26.9892 11.0663 26.4873 10.7415 25.8957 10.4986C25.323 10.2635 24.6686 10.1031 23.7107 10.0574C22.7507 10.0111 22.4446 10 20 10C17.5554 10 17.2498 10.0111 16.2893 10.0574C15.3314 10.1031 14.6769 10.2641 14.1048 10.4986C13.5132 10.7415 13.0113 11.0663 12.511 11.5944C12.0107 12.1226 11.7025 12.6524 11.4729 13.2769C11.2502 13.8813 11.0982 14.5716 11.0544 15.5827C11.0106 16.5961 11 16.9192 11 19.4997C11 22.0802 11.0106 22.4033 11.0544 23.4167C11.0976 24.4279 11.2502 25.1187 11.4729 25.7226C11.7025 26.3476 12.0101 26.8774 12.511 27.4056C13.0113 27.9337 13.5132 28.2585 14.1048 28.5014C14.6775 28.7365 15.3314 28.8969 16.2893 28.9426C17.2493 28.9889 17.5554 29 20 29C22.4446 29 22.7507 28.9889 23.7107 28.9426C24.6686 28.8964 25.323 28.7359 25.8957 28.5014C26.4873 28.2585 26.9892 27.9337 27.4895 27.4056C27.9899 26.8774 28.2975 26.3476 28.5276 25.7226C28.7498 25.1187 28.9024 24.4279 28.9462 23.4167C28.99 22.4033 29 22.0802 29 19.4997C29 16.9192 28.99 16.5961 28.9462 15.5827C28.9024 14.5716 28.7504 13.8808 28.5276 13.2769ZM20 24.3783C17.4477 24.3783 15.3784 22.1944 15.3784 19.5003C15.3784 16.8061 17.4477 14.6217 20 14.6217C22.5523 14.6217 24.6216 16.8061 24.6216 19.5003C24.6216 22.1944 22.5528 24.3783 20 24.3783ZM24.8043 15.5688C24.2079 15.5688 23.7244 15.0579 23.7244 14.4284C23.7244 13.7989 24.2079 13.2886 24.8043 13.2886C25.4006 13.2886 25.8841 13.7989 25.8841 14.4284C25.8841 15.0579 25.4006 15.5688 24.8043 15.5688ZM23.0003 19.4997C23.0003 21.249 21.6572 22.6663 20.0005 22.6663C18.3439 22.6663 17.0007 21.2485 17.0007 19.4997C17.0007 17.751 18.3439 16.3331 20.0005 16.3331C21.6572 16.3331 23.0003 17.751 23.0003 19.4997Z" fill="white"></path></svg> 