<?xml version="1.0" encoding="UTF-8"?> <svg xmlns="http://www.w3.org/2000/svg" width="22" height="28" viewBox="0 0 22 28" fill="none"><path d="M11 14.2295C12.5125 14.2295 13.75 12.9488 13.75 11.3836C13.75 9.81832 12.5125 8.53767 11 8.53767C9.4875 8.53767 8.25 9.81832 8.25 11.3836C8.25 12.9488 9.4875 14.2295 11 14.2295ZM11 0C16.775 0 22 4.58188 22 11.6681C22 16.1931 18.6313 21.5149 11.9075 27.6478C11.385 28.1174 10.6012 28.1174 10.0787 27.6478C3.36875 21.5149 0 16.1931 0 11.6681C0 4.58188 5.225 0 11 0Z" fill="#D6DDE7"></path></svg> 