<?xml version="1.0" encoding="UTF-8"?> <svg xmlns="http://www.w3.org/2000/svg" width="42" height="52" viewBox="0 0 42 52" fill="none"><path d="M21 26.4261C23.8875 26.4261 26.25 24.0478 26.25 21.1409C26.25 18.234 23.8875 15.8557 21 15.8557C18.1125 15.8557 15.75 18.234 15.75 21.1409C15.75 24.0478 18.1125 26.4261 21 26.4261ZM21 0C32.025 0 42 8.50921 42 21.6694C42 30.0729 35.5687 39.9563 22.7325 51.346C21.735 52.218 20.2388 52.218 19.2412 51.346C6.43125 39.9563 0 30.0729 0 21.6694C0 8.50921 9.975 0 21 0Z" fill="#FF4F28"></path></svg> 