<?xml version="1.0" encoding="UTF-8"?> <svg xmlns="http://www.w3.org/2000/svg" width="60" height="60" viewBox="0 0 60 60" fill="none"><rect width="60" height="60" rx="18" fill="url(#paint0_linear_3765_22329)"></rect><path d="M43.4145 27.1762H41.2969V21.5292C41.2969 19.9762 40.0263 18.7057 38.4733 18.7057H32.8263V16.588C32.8263 14.6398 31.2451 13.0586 29.2969 13.0586C27.3486 13.0586 25.7675 14.6398 25.7675 16.588V18.7057H20.1204C18.5675 18.7057 17.311 19.9762 17.311 21.5292V26.8939H19.4145C21.5181 26.8939 23.2263 28.6021 23.2263 30.7057C23.2263 32.8092 21.5181 34.5174 19.4145 34.5174H17.2969V39.8821C17.2969 41.4351 18.5675 42.7057 20.1204 42.7057H25.4851V40.588C25.4851 38.4845 27.1933 36.7762 29.2969 36.7762C31.4004 36.7762 33.1086 38.4845 33.1086 40.588V42.7057H38.4733C40.0263 42.7057 41.2969 41.4351 41.2969 39.8821V34.2351H43.4145C45.3628 34.2351 46.9439 32.6539 46.9439 30.7057C46.9439 28.7574 45.3628 27.1762 43.4145 27.1762Z" fill="white"></path><defs><linearGradient id="paint0_linear_3765_22329" x1="11.2961" y1="54.5216" x2="92.0568" y2="25.148" gradientUnits="userSpaceOnUse"><stop stop-color="#FF4F28"></stop><stop offset="1" stop-color="#D3FF74"></stop></linearGradient></defs></svg> 