<?xml version="1.0" encoding="UTF-8"?> <svg xmlns="http://www.w3.org/2000/svg" width="946" height="466" viewBox="0 0 946 466" fill="none"><rect width="946" height="466" rx="40" fill="white"></rect><mask id="mask0_3953_11440" style="mask-type:alpha" maskUnits="userSpaceOnUse" x="0" y="0" width="946" height="466"><rect width="946" height="466" rx="40" fill="white"></rect></mask><g mask="url(#mask0_3953_11440)"><path d="M857.801 25.1875H832.215L850.018 42.9911C851.728 44.7002 851.728 47.4711 850.018 49.1801L832.215 66.9838H857.801C859.501 66.9838 861.131 66.3086 862.332 65.1069L878.259 49.1801C879.968 47.4711 879.968 44.7002 878.259 42.9911L862.332 27.0644C861.131 25.8626 859.501 25.1875 857.801 25.1875Z" fill="#E8F1FE"></path><path d="M904.875 45.8828H879.289L897.093 63.6865C898.802 65.3955 898.802 68.1664 897.093 69.8754L879.289 87.6791H904.875C906.575 87.6791 908.205 87.0039 909.407 85.8022L925.333 69.8754C927.042 68.1664 927.042 65.3955 925.333 63.6865L909.407 47.7597C908.205 46.558 906.575 45.8828 904.875 45.8828Z" fill="#E8F1FE"></path><path d="M878.09 88.0859H852.504L870.308 105.89C872.017 107.599 872.017 110.37 870.308 112.079L852.504 129.882H878.09C879.79 129.882 881.42 129.207 882.622 128.005L898.548 112.079C900.257 110.37 900.257 107.599 898.548 105.89L882.622 89.9628C881.42 88.7611 879.79 88.0859 878.09 88.0859Z" fill="#E8F1FE"></path><path d="M763.657 -37.7148H738.07L755.874 -19.9112C757.583 -18.2022 757.583 -15.4313 755.874 -13.7222L738.07 4.08142H763.657C765.356 4.08142 766.986 3.40628 768.188 2.20453L784.115 -13.7222C785.824 -15.4313 785.824 -18.2022 784.115 -19.9112L768.188 -35.838C766.986 -37.0397 765.356 -37.7148 763.657 -37.7148Z" fill="#E8F1FE"></path><path d="M904.875 129.473H879.289L897.093 147.276C898.802 148.985 898.802 151.756 897.093 153.465L879.289 171.269H904.875C906.575 171.269 908.205 170.594 909.407 169.392L925.333 153.465C927.042 151.756 927.042 148.985 925.333 147.276L909.407 131.35C908.205 130.148 906.575 129.473 904.875 129.473Z" fill="#E8F1FE"></path><path d="M716.586 -17.0156H691L708.804 0.788013C710.513 2.49706 710.513 5.26796 708.804 6.977L691 24.7806H716.586C718.286 24.7806 719.916 24.1055 721.118 22.9037L737.044 6.977C738.753 5.26796 738.753 2.49706 737.044 0.788017L721.118 -15.1387C719.916 -16.3405 718.286 -17.0156 716.586 -17.0156Z" fill="#E8F1FE"></path><path d="M857.801 150.168H832.215L850.018 167.972C851.728 169.681 851.728 172.452 850.018 174.161L832.215 191.964H857.801C859.501 191.964 861.131 191.289 862.332 190.087L878.259 174.161C879.968 172.452 879.968 169.681 878.259 167.972L862.332 152.045C861.131 150.843 859.501 150.168 857.801 150.168Z" fill="#E8F1FE"></path><path d="M952.348 66.9805H926.762L944.565 84.7841C946.274 86.4931 946.274 89.264 944.565 90.9731L926.762 108.777H952.348C954.048 108.777 955.678 108.102 956.879 106.9L972.806 90.9731C974.515 89.2641 974.515 86.4932 972.806 84.7841L956.879 68.8574C955.678 67.6556 954.048 66.9805 952.348 66.9805Z" fill="#E8F1FE"></path><path d="M811.133 4.08594L785.547 4.08594L803.351 21.8896C805.06 23.5986 805.06 26.3695 803.351 28.0786L785.547 45.8822H811.133C812.833 45.8822 814.463 45.2071 815.664 44.0053L831.591 28.0786C833.3 26.3695 833.3 23.5986 831.591 21.8896L815.664 5.96283C814.463 4.76108 812.833 4.08594 811.133 4.08594Z" fill="#E8F1FE"></path><path d="M952.348 171.273H926.762L944.565 189.077C946.274 190.786 946.274 193.557 944.565 195.266L926.762 213.07H952.348C954.048 213.07 955.678 212.395 956.879 211.193L972.806 195.266C974.515 193.557 974.515 190.786 972.806 189.077L956.879 173.15C955.678 171.949 954.048 171.273 952.348 171.273Z" fill="#E8F1FE"></path><path d="M857.801 -37.7148H832.215L850.018 -19.9112C851.728 -18.2022 851.728 -15.4313 850.018 -13.7222L832.215 4.08142H857.801C859.501 4.08142 861.131 3.40628 862.332 2.20453L878.259 -13.7222C879.968 -15.4313 879.968 -18.2022 878.259 -19.9112L862.332 -35.838C861.131 -37.0397 859.501 -37.7148 857.801 -37.7148Z" fill="#E8F1FE"></path><path d="M114.578 288H140.164L122.36 305.804C120.651 307.513 120.651 310.284 122.36 311.993L140.164 329.796H114.578C112.878 329.796 111.248 329.121 110.046 327.919L94.1197 311.993C92.4107 310.284 92.4107 307.513 94.1197 305.804L110.046 289.877C111.248 288.675 112.878 288 114.578 288Z" fill="#E8F1FE"></path><path d="M67.5074 308.695H93.0938L75.2901 326.499C73.5811 328.208 73.5811 330.979 75.2901 332.688L93.0938 350.492H67.5074C65.8078 350.492 64.1779 349.816 62.9761 348.615L47.0494 332.688C45.3404 330.979 45.3403 328.208 47.0494 326.499L62.9761 310.572C64.1779 309.37 65.8078 308.695 67.5074 308.695Z" fill="#E8F1FE"></path><path d="M94.2886 350.898H119.875L102.071 368.702C100.362 370.411 100.362 373.182 102.071 374.891L119.875 392.695H94.2886C92.5891 392.695 90.9591 392.02 89.7574 390.818L73.8306 374.891C72.1216 373.182 72.1216 370.411 73.8306 368.702L89.7574 352.775C90.9591 351.574 92.5891 350.898 94.2886 350.898Z" fill="#E8F1FE"></path><path d="M67.5074 392.285H93.0938L75.2901 410.089C73.5811 411.798 73.5811 414.569 75.2901 416.278L93.0938 434.081H67.5074C65.8078 434.081 64.1779 433.406 62.9761 432.205L47.0494 416.278C45.3404 414.569 45.3403 411.798 47.0494 410.089L62.9761 394.162C64.1779 392.96 65.8078 392.285 67.5074 392.285Z" fill="#E8F1FE"></path><path d="M114.578 412.984H140.164L122.36 430.788C120.651 432.497 120.651 435.268 122.36 436.977L140.164 454.781H114.578C112.878 454.781 111.248 454.106 110.046 452.904L94.1197 436.977C92.4107 435.268 92.4107 432.497 94.1197 430.788L110.046 414.861C111.248 413.66 112.878 412.984 114.578 412.984Z" fill="#E8F1FE"></path><path d="M20.0308 329.797H45.6172L27.8135 347.601C26.1045 349.31 26.1045 352.08 27.8135 353.789L45.6172 371.593H20.0308C18.3313 371.593 16.7013 370.918 15.4996 369.716L-0.42717 353.79C-2.13621 352.08 -2.13622 349.31 -0.427174 347.601L15.4996 331.674C16.7013 330.472 18.3313 329.797 20.0308 329.797Z" fill="#E8F1FE"></path><path d="M-7.9692 288H17.6172L-0.186451 305.804C-1.89549 307.513 -1.8955 310.284 -0.186455 311.993L17.6172 329.796H-7.9692C-9.66874 329.796 -11.2987 329.121 -12.5004 327.919L-28.4272 311.993C-30.1362 310.284 -30.1362 307.513 -28.4272 305.804L-12.5004 289.877C-11.2987 288.675 -9.66874 288 -7.9692 288Z" fill="#E8F1FE"></path><path d="M20.0308 434.086H45.6172L27.8135 451.89C26.1045 453.599 26.1045 456.37 27.8135 458.079L45.6172 475.882H20.0308C18.3313 475.882 16.7013 475.207 15.4996 474.005L-0.42717 458.079C-2.13621 456.37 -2.13622 453.599 -0.427174 451.89L15.4996 435.963C16.7013 434.761 18.3313 434.086 20.0308 434.086Z" fill="#E8F1FE"></path></g></svg> 