<?xml version="1.0" encoding="UTF-8"?> <svg xmlns="http://www.w3.org/2000/svg" width="40" height="40" viewBox="0 0 40 40" fill="none"><rect width="40" height="40" rx="8" fill="#FF4F28"></rect><path fill-rule="evenodd" clip-rule="evenodd" d="M27.9914 13.13C27.9428 13.8225 27.5543 16.2469 27.1657 18.8686L25.9515 26.6359C25.9515 26.6359 25.8543 27.7736 25.0287 27.9715C24.203 28.1694 22.843 27.279 22.5996 27.0811C22.4053 26.9327 18.9563 24.7068 17.6935 23.6179C17.3536 23.3211 16.965 22.7275 17.7421 22.035C19.4906 20.4026 21.5797 18.3739 22.8425 17.0878C23.4253 16.4942 24.0081 15.1092 21.5797 16.791L14.7308 21.4909C14.7308 21.4909 13.9537 21.9855 12.4966 21.5403C11.0396 21.0952 9.33906 20.5016 9.33906 20.5016C9.33906 20.5016 8.1734 19.7596 10.1647 18.9681L21.4825 14.2188C22.5996 13.7241 26.3886 12.1412 26.3886 12.1412C26.3886 12.1412 28.1371 11.4487 27.9914 13.1306V13.13Z" fill="white"></path></svg> 