<svg xmlns="http://www.w3.org/2000/svg" version="1.1" xmlns:xlink="http://www.w3.org/1999/xlink" xmlns:svgjs="http://svgjs.dev/svgjs" viewBox="0 0 800 800"><defs><filter id="uuunion-blur" x="-100%" y="-100%" width="400%" height="400%" color-interpolation-filters="sRGB">
        <feGaussianBlur in="SourceGraphic" stdDeviation="0 0" result="blur"></feGaussianBlur>
        <feDropShadow stdDeviation="45.53846153846153" in="blur" dx="37" dy="37" flood-color="hsl(30, 100%, 40%)" flood-opacity="0.22" x="0%" y="0%" width="100%" height="100%"></feDropShadow>
      </filter><filter id="uuunion-blur2" x="-100%" y="-100%" width="400%" height="400%" color-interpolation-filters="sRGB">
        <feGaussianBlur in="SourceGraphic" stdDeviation="0 0" result="blur"></feGaussianBlur>
        <feDropShadow stdDeviation="45.53846153846153" in="blur" dx="-37" dy="-37" flood-color="hsl(30, 100%, 40%)" flood-opacity="0.22" x="0%" y="0%" width="100%" height="100%"></feDropShadow>
      </filter><linearGradient gradientTransform="rotate(0, 0.5, 0.5)" x1="50%" y1="0%" x2="50%" y2="100%" id="uuunion-grad"><stop stop-color="hsl(0, 0%, 100%)" offset="10%"></stop><stop stop-color="hsl(30, 100%, 40%)" offset="90%"></stop></linearGradient><linearGradient gradientTransform="rotate(47, 0.5, 0.5)" x1="50%" y1="0%" x2="50%" y2="100%" id="uuunion-grad2"><stop stop-color="hsl(0, 0%, 100%)" offset="25%"></stop><stop stop-color="hsl(30, 100%, 40%)" offset="100%"></stop></linearGradient><linearGradient gradientTransform="rotate(333, 0.5, 0.5)" x1="50%" y1="0%" x2="50%" y2="100%" id="uuunion-grad3"><stop stop-color="hsl(0, 0%, 100%)" offset="0%"></stop><stop stop-color="hsl(30, 100%, 40%)" offset="75%"></stop></linearGradient></defs><path d="M-77.21 -80.42Q-62.91 -78.33 -48.6 -76.39 -34.3 -74.78 -20 -73.66 -5.69 -73.13 8.6 -73.24 22.91 -73.97 37.21 -75.27 51.51 -77 65.82 -79.02 80.12 -81.12 94.42 -83.12 108.73 -84.83 123.03 -86.09 137.33 -86.78 151.64 -86.84 165.94 -86.27 180.25 -85.11 194.55 -83.48 208.85 -81.52 223.16 -79.42 237.46 -77.37 251.76 -75.57 266.07 -74.18 280.37 -73.33 294.67 -73.1 308.98 -73.51 323.28 -74.53 337.59 -76.05 351.89 -77.94 366.19 -80.02 380.5 -82.1 394.8 -83.98 409.1 -85.49 423.41 -86.49 437.71 -86.89 452.01 -86.65 466.32 -85.78 480.62 -84.38 494.93 -82.58 509.23 -80.53 523.53 -78.43 537.84 -76.48 552.14 -74.85 566.44 -73.7 580.75 -73.14 595.05 -73.22 609.35 -73.92 623.66 -75.19 637.96 -76.91 652.27 -78.91 666.57 -81.02 680.87 -83.03 695.18 -84.75 709.48 -86.04 723.78 -86.76 738.09 -86.85 752.39 -86.31 766.69 -85.18 781 -83.57 795.3 -81.62 809.6 -79.52 823.91 -77.47 838.21 -75.65 835 -60.29 837.74 -44.92 846.08 -29.56 858.9 -14.19 874.52 1.16 890.86 16.53 905.77 31.9 917.26 47.26 923.82 62.63 924.58 77.99 919.43 93.36 909.07 108.72 894.86 124.09 878.68 139.46 862.68 154.82 848.97 170.19 839.36 185.55 835.13 200.92 836.84 216.28 844.27 231.65 856.42 247.02 871.69 262.38 888.06 277.75 903.37 293.11 915.58 308.48 923.08 323.84 924.88 339.21 920.73 354.57 911.2 369.94 897.53 385.31 881.55 400.67 865.36 416.04 851.1 431.4 840.67 446.77 835.45 462.13 836.12 477.5 842.6 492.87 854.03 508.23 868.89 523.6 885.23 538.96 900.87 554.33 913.75 569.69 922.16 585.06 924.99 600.43 921.87 615.79 913.2 631.16 900.14 646.52 884.41 661.89 868.09 677.25 853.36 692.62 842.14 707.99 835.94 723.35 835.57 738.72 841.08 754.08 851.74 769.45 866.14 784.81 882.37 800.18 898.29 815.55 911.79 830.91 921.08 846.28 924.93 861.64 922.83 877.01 915.06 892.37 902.66 907.74 887.28 896.12 871.9 883 856.52 869.6 841.15 857.17 825.77 846.86 810.39 839.63 795.01 836.15 779.63 836.75 764.26 841.38 748.88 849.59 733.5 860.63 718.12 873.47 702.75 886.92 687.37 899.72 671.99 910.69 656.61 918.8 641.24 923.31 625.86 923.79 610.48 920.2 595.1 912.87 579.72 902.48 564.35 890 548.97 876.59 533.59 863.5 518.21 851.94 502.84 842.99 487.46 837.48 472.08 835.93 456.7 838.47 441.33 844.87 425.95 854.54 410.57 866.57 395.19 879.86 379.81 893.15 364.44 905.23 349.06 914.95 333.68 921.43 318.3 924.05 302.93 922.58 287.55 917.15 272.17 908.26 256.79 896.75 241.42 883.67 226.04 870.26 210.66 857.75 195.28 847.31 179.9 839.91 164.53 836.23 149.15 836.63 133.77 841.05 118.39 849.1 103.02 860.02 87.64 872.8 72.26 886.25 56.88 899.11 41.51 910.2 26.13 918.48 10.75 923.18 -4.62 923.87 -20 920.47 -35.37 913.32 -50.75 903.06 -66.13 890.66 -81.51 877.27 -82.33 862.3 -82.85 847.34 -82.99 832.38 -82.73 817.41 -82.11 802.45 -81.21 787.48 -80.15 772.52 -79.07 757.56 -78.11 742.59 -77.4 727.63 -77.03 712.66 -77.06 697.7 -77.47 682.74 -78.22 667.77 -79.2 652.81 -80.29 637.84 -81.34 622.88 -82.21 607.92 -82.79 592.95 -82.99 577.99 -82.81 563.02 -82.25 548.06 -81.39 533.1 -80.34 518.13 -79.25 503.17 -78.26 488.2 -77.5 473.24 -77.07 458.27 -77.03 443.31 -77.37 428.35 -78.07 413.38 -79.02 398.42 -80.1 383.45 -81.16 368.49 -82.08 353.53 -82.71 338.56 -82.99 323.6 -82.87 308.63 -82.37 293.67 -81.55 278.71 -80.53 263.74 -79.44 248.78 -78.42 233.81 -77.61 218.85 -77.12 203.89 -77 188.92 -77.29 173.96 -77.93 158.99 -78.84 144.03 -79.91 129.07 -80.99 114.1 -81.93 99.14 -82.62 84.17 -82.97 69.21 -82.92 54.25 -82.48 39.28 -81.71 24.32 -80.72 9.35 -79.63 -5.6 -78.59 -20.57 -77.73 -35.53 -77.18 -50.49 -77 -65.46 -77.21 -80.42" fill="url(#uuunion-grad)"></path><path d="M-77.21 -80.42Q-77 -65.46 -77.18 -50.49 -77.73 -35.53 -78.59 -20.57 -79.63 -5.6 -80.72 9.35 -81.71 24.32 -82.48 39.28 -82.92 54.25 -82.97 69.21 -82.62 84.17 -81.93 99.14 -80.99 114.1 -79.91 129.07 -78.84 144.03 -77.93 158.99 -77.29 173.96 -77 188.92 -77.12 203.89 -77.61 218.85 -78.42 233.81 -79.44 248.78 -80.53 263.74 -81.55 278.71 -82.37 293.67 -82.87 308.63 -82.99 323.6 -82.71 338.56 -82.08 353.53 -81.16 368.49 -80.1 383.45 -79.02 398.42 -69.18 403.61 -59.34 408.65 -49.51 413.33 -39.67 417.46 -29.83 420.86 -20 423.4 -1.55 425.35 1.63 425.47 14.15 417.91 26.86 408.83 39.76 398.43 52.85 387.02 66.09 374.94 79.46 362.58 92.93 350.33 106.46 338.58 119.99 327.68 133.49 317.9 146.9 309.44 160.17 302.43 173.25 296.87 186.11 292.7 198.7 289.75 211 287.78 222.98 286.5 234.63 285.57 245.95 284.64 256.94 283.37 267.64 281.45 278.06 278.62 288.26 274.68 298.27 269.5 308.17 263.05 318.02 255.37 327.89 246.59 337.86 236.89 348 226.51 358.4 215.75 369.12 204.9 380.23 194.25 391.79 184.09 403.84 174.66 416.44 166.13 429.6 158.63 443.34 152.21 457.64 146.86 472.5 142.47 487.87 138.92 503.7 135.98 519.93 133.45 536.48 131.05 553.26 128.55 570.16 125.69 587.09 122.29 603.92 118.16 620.54 113.2 636.84 107.36 652.71 100.63 668.05 93.07 682.77 84.81 696.79 76 710.03 66.82 722.47 57.47 734.06 48.17 744.8 39.1 754.7 30.45 763.81 22.35 772.17 14.89 779.87 8.13 786.99 2.07 793.66 -3.32 800 -8.14 783.02 -25.09 769.09 -42.04 760.71 -58.98 759.38 -75.93 765.33 -92.88 777.5 -109.83 794.83 -135.56 780.84 -144.57 765.73 -144.37 750.62 -143.78 735.51 -142.83 720.41 -141.62 705.3 -140.27 690.19 -138.89 675.09 -137.61 659.98 -136.55 644.87 -135.81 629.76 -135.45 614.66 -135.51 599.55 -135.98 584.44 -136.82 569.34 -137.95 554.23 -139.27 539.12 -140.66 524.01 -141.98 508.91 -143.12 493.8 -143.98 478.69 -144.47 463.58 -144.55 448.48 -144.21 433.37 -143.48 418.26 -142.44 403.16 -141.17 388.05 -139.79 372.94 -138.43 357.83 -137.21 342.73 -136.25 327.62 -135.64 312.51 -135.42 297.41 -135.62 282.3 -136.23 267.19 -137.18 252.08 -138.39 236.98 -139.75 221.87 -141.13 206.76 -142.4 191.65 -143.46 176.55 -144.19 161.44 -144.55 146.33 -144.48 131.23 -144 116.12 -143.15 101.01 -142.02 85.9 -140.7 70.8 -139.31 55.69 -137.99 40.58 -136.85 25.48 -136 10.37 -135.51 -4.73 -135.44 -19.84 -135.79 -34.94 -136.52 -50.05 -137.57 -65.16 -138.85 -80.27 -140.23 -95.37 -141.59 -110.48 -142.8 -125.59 -143.75 -133.9 -131.46 -114.85 -114.18 -105.12 -106.04 -95.61 -97.68 -86.32 -89.13 -77.21 -80.42" fill="url(#uuunion-grad2)" filter="url(#uuunion-blur)"></path><path d="M786.66 379.22Q796.5 382.65 806.33 386.8 816.17 391.49 826.01 396.54 835.84 401.73 845.68 406.85 855.52 411.69 865.36 416.04 851.1 431.4 840.67 446.77 835.45 462.13 836.12 477.5 842.6 492.87 854.03 508.23 868.89 523.6 885.23 538.96 900.87 554.33 913.75 569.69 922.16 585.06 924.99 600.43 921.87 615.79 913.2 631.16 900.14 646.52 884.41 661.89 868.09 677.25 853.36 692.62 842.14 707.99 835.94 723.35 835.57 738.72 841.08 754.08 851.74 769.45 866.14 784.81 882.37 800.18 898.29 815.55 911.79 830.91 921.08 846.28 924.93 861.64 922.83 877.01 915.06 892.37 902.66 907.74 888.54 897.15 874.43 885.21 860.32 872.87 846.21 861.08 832.09 850.78 817.98 842.76 803.87 837.67 789.76 835.9 775.65 837.58 761.53 842.59 747.42 850.53 733.31 860.78 719.2 872.54 705.08 884.88 690.97 896.84 676.86 907.48 662.75 915.96 648.64 921.63 634.52 924.03 620.41 922.98 606.3 918.55 592.19 911.11 578.07 901.22 563.96 889.67 549.85 877.37 535.74 865.26 521.63 854.32 507.51 845.38 493.4 839.16 479.29 836.14 465.18 836.56 451.06 840.39 436.95 847.32 422.84 856.81 408.73 868.12 394.62 880.36 380.5 892.57 366.39 903.8 352.28 913.16 338.17 919.92 324.05 923.55 309.94 923.76 295.83 920.54 281.72 914.15 267.61 905.07 253.49 894.03 239.38 881.89 225.27 869.6 211.16 858.13 197.04 848.37 182.93 841.09 168.82 836.86 154.71 836.01 140.6 838.61 126.48 844.46 112.37 853.09 98.26 863.83 84.15 875.84 70.03 888.17 55.92 899.87 41.81 910 27.7 917.79 6.62 918.15 -0.19 903.31 -0.09 892.92 -0.05 882.54 -0.06 872.15 -0.13 861.76 -0.07 846.18 0.61 841 13.29 833.18 25.78 822.85 38.08 810.29 50.18 795.93 62.09 780.32 73.81 764.08 85.38 747.86 96.82 732.3 108.18 718 119.49 705.45 130.81 695.05 142.18 687.02 153.66 681.47 165.29 678.31 177.13 677.31 189.23 678.1 201.61 680.21 214.31 683.09 227.35 686.13 240.74 688.73 254.48 690.33 268.57 690.43 282.98 688.66 297.67 684.73 312.61 678.53 327.73 670.1 342.98 659.6 358.28 647.33 373.55 633.71 388.73 619.23 403.72 604.43 418.45 589.87 432.85 576.09 446.84 563.55 460.35 552.64 473.35 543.65 485.78 536.71 497.62 531.84 508.86 528.93 519.5 527.72 529.56 527.87 539.08 528.94 556.56 531.6 573.02 532.61 580.9 531.07 588.75 527.87 596.68 522.81 604.81 515.87 613.27 507.12 622.15 496.74 631.58 485.03 641.65 472.37 652.43 459.19 664 445.93 676.41 433.06 689.69 421 703.85 410.09 718.88 400.63 734.74 392.8 751.38 386.66 768.72 382.18 786.66 379.22 786.66 379.22 786.66 379.22" fill="url(#uuunion-grad3)" filter="url(#uuunion-blur2)"></path></svg>