<svg xmlns="http://www.w3.org/2000/svg" version="1.1" xmlns:xlink="http://www.w3.org/1999/xlink" xmlns:svgjs="http://svgjs.dev/svgjs" viewBox="0 0 800 800"><defs><filter id="uuunion-blur" x="-100%" y="-100%" width="400%" height="400%" color-interpolation-filters="sRGB">
        <feGaussianBlur in="SourceGraphic" stdDeviation="0 0" result="blur"></feGaussianBlur>
        <feDropShadow stdDeviation="12.307692307692308" in="blur" dx="10" dy="10" flood-color="hsl(30, 100%, 40%)" flood-opacity="0.25" x="0%" y="0%" width="100%" height="100%"></feDropShadow>
      </filter><filter id="uuunion-blur2" x="-100%" y="-100%" width="400%" height="400%" color-interpolation-filters="sRGB">
        <feGaussianBlur in="SourceGraphic" stdDeviation="0 0" result="blur"></feGaussianBlur>
        <feDropShadow stdDeviation="12.307692307692308" in="blur" dx="-10" dy="-10" flood-color="hsl(30, 100%, 40%)" flood-opacity="0.25" x="0%" y="0%" width="100%" height="100%"></feDropShadow>
      </filter><linearGradient gradientTransform="rotate(155, 0.5, 0.5)" x1="50%" y1="0%" x2="50%" y2="100%" id="uuunion-grad"><stop stop-color="hsl(30, 100%, 70%)" offset="10%"></stop><stop stop-color="hsl(30, 100%, 40%)" offset="90%"></stop></linearGradient><linearGradient gradientTransform="rotate(143, 0.5, 0.5)" x1="50%" y1="0%" x2="50%" y2="100%" id="uuunion-grad2"><stop stop-color="hsl(30, 100%, 70%)" offset="25%"></stop><stop stop-color="hsl(30, 100%, 40%)" offset="100%"></stop></linearGradient><linearGradient gradientTransform="rotate(360, 0.5, 0.5)" x1="50%" y1="0%" x2="50%" y2="100%" id="uuunion-grad3"><stop stop-color="hsl(30, 100%, 70%)" offset="0%"></stop><stop stop-color="hsl(30, 100%, 40%)" offset="75%"></stop></linearGradient></defs><path d="M-79.01 -78.73Q-64.38 -76.45 -49.75 -74.41 -35.12 -72.78 -20.49 -71.66 -5.86 -71.13 8.76 -71.24 23.39 -71.97 38.02 -73.27 52.65 -75.05 67.28 -77.19 81.91 -79.52 96.54 -81.89 111.17 -84.13 125.8 -86.07 140.43 -87.57 155.06 -88.54 169.7 -88.89 184.33 -88.62 198.96 -87.72 213.59 -86.28 228.22 -84.39 242.85 -82.18 257.48 -79.82 272.11 -77.47 286.74 -75.3 301.37 -73.47 316 -72.1 330.63 -71.29 345.26 -71.11 359.89 -71.56 374.52 -72.61 389.15 -74.19 403.78 -76.18 418.41 -78.44 433.04 -80.82 447.67 -83.13 462.3 -85.23 476.93 -86.94 491.56 -88.17 506.19 -88.81 520.82 -88.82 535.45 -88.2 550.08 -87 564.71 -85.3 579.34 -83.22 593.97 -80.91 608.6 -78.53 623.23 -76.26 637.86 -74.26 652.49 -72.66 667.12 -71.59 681.75 -71.11 696.38 -71.28 711.01 -72.06 725.64 -73.41 740.27 -75.22 754.9 -77.38 769.53 -79.73 784.16 -82.09 798.8 -84.31 813.43 -86.21 828.06 -87.68 842.69 -88.59 857.32 -88.89 859.09 -74.1 862.31 -59.31 866.74 -44.51 872.09 -29.72 877.98 -14.93 884.01 -0.13 889.76 14.65 894.84 29.45 898.9 44.24 901.66 59.03 902.92 73.83 902.61 88.62 900.74 103.41 897.44 118.21 892.94 133 887.55 147.8 881.64 162.59 875.61 177.38 869.89 192.18 864.86 206.97 860.88 221.76 858.21 236.56 857.04 251.35 857.45 266.15 859.42 280.94 862.8 295.73 867.36 310.53 872.8 325.32 878.73 340.11 884.75 354.91 890.44 369.7 895.41 384.5 899.32 399.29 901.9 414.08 902.97 428.88 902.46 443.67 900.4 458.46 896.94 473.26 892.31 488.05 886.84 502.85 880.89 517.64 874.88 532.43 869.22 547.23 864.31 562.02 860.47 576.81 857.98 591.61 857.01 606.4 857.61 621.2 859.76 635.99 863.3 650.78 868 665.58 873.51 680.37 879.48 695.16 885.48 709.96 891.1 724.75 895.96 739.55 899.71 754.34 902.11 769.13 902.99 783.93 902.29 798.72 900.05 813.51 896.42 828.31 891.67 843.1 886.12 857.9 871.02 858.65 855.92 860.92 840.82 864.55 825.72 869.29 810.62 874.79 795.52 880.66 780.42 886.48 765.32 891.84 750.22 896.36 735.12 899.71 720.02 901.65 704.92 902.05 689.82 900.87 674.72 898.21 659.62 894.25 644.52 889.27 629.42 883.63 614.32 877.73 599.22 871.99 584.12 866.82 569.02 862.6 553.92 859.61 538.82 858.08 523.72 858.11 508.62 859.7 493.52 862.74 478.42 867.01 463.32 872.2 448.22 877.95 433.12 883.85 418.02 889.47 402.92 894.42 387.82 898.34 372.72 900.95 357.62 902.06 342.52 901.6 327.42 899.6 312.32 896.2 297.22 891.65 282.12 886.26 267.02 880.43 251.92 874.57 236.82 869.09 221.72 864.39 206.62 860.81 191.53 858.59 176.43 857.9 161.33 858.78 146.23 861.18 131.13 864.92 116.03 869.74 100.93 875.28 85.83 881.16 70.73 886.96 55.63 892.27 40.53 896.69 25.43 899.93 10.33 901.74 -4.76 902.01 -19.86 900.7 -34.96 897.92 -50.06 893.86 -65.16 888.81 -80.26 883.13 -80.5 868.1 -80.71 853.07 -80.87 838.04 -80.96 823.01 -80.99 807.98 -80.96 792.95 -80.85 777.92 -80.69 762.89 -80.48 747.86 -80.23 732.84 -79.97 717.81 -79.71 702.78 -79.47 687.75 -79.27 672.72 -79.12 657.69 -79.02 642.66 -79 627.63 -79.04 612.6 -79.15 597.57 -79.31 582.54 -79.53 567.51 -79.77 552.48 -80.03 537.46 -80.29 522.43 -80.53 507.4 -80.73 492.37 -80.88 477.34 -80.97 462.31 -80.99 447.28 -80.95 432.25 -80.84 417.22 -80.67 402.19 -80.45 387.16 -80.2 372.13 -79.94 357.1 -79.68 342.08 -79.45 327.05 -79.25 312.02 -79.1 296.99 -79.01 281.96 -79 266.93 -79.05 251.9 -79.16 236.87 -79.34 221.84 -79.56 206.81 -79.8 191.78 -80.07 176.75 -80.32 161.72 -80.56 146.7 -80.75 131.67 -80.9 116.64 -80.98 101.61 -80.99 86.58 -80.94 71.55 -80.82 56.52 -80.64 41.49 -80.42 26.46 -80.17 11.43 -79.91 -3.59 -79.65 -18.62 -79.42 -33.65 -79.23 -48.67 -79.09 -63.7 -79.01 -78.73" fill="url(#uuunion-grad)"></path><path d="M-79.01 -78.73Q-79.09 -63.7 -79.23 -48.67 -79.42 -33.65 -79.65 -18.62 -79.91 -3.59 -80.17 11.43 -80.42 26.46 -80.64 41.49 -80.82 56.52 -80.94 71.55 -80.99 86.58 -80.98 101.61 -80.9 116.64 -80.75 131.67 -80.56 146.7 -80.32 161.72 -80.07 176.75 -79.8 191.78 -79.56 206.81 -79.34 221.84 -79.16 236.87 -79.05 251.9 -79 266.93 -79.01 281.96 -79.1 296.99 -79.25 312.02 -79.45 327.05 -79.68 342.08 -79.94 357.1 -80.2 372.13 -80.45 387.16 -80.67 402.19 -70.5 404.88 -60.33 407.42 -50.16 409.72 -40 411.71 -29.83 413.32 -19.66 414.52 -0.6 415.43 2.69 415.49 15.25 408.65 27.75 401.08 40.17 392.87 52.53 384.1 64.81 374.92 77.02 365.46 89.16 355.9 101.23 346.39 113.24 337.09 125.2 328.16 137.11 319.72 148.98 311.87 160.83 304.68 172.66 298.2 184.5 292.42 196.34 287.32 208.21 282.82 220.13 278.84 232.09 275.26 244.12 271.94 256.23 268.73 268.44 265.49 280.74 262.06 293.16 258.31 305.69 254.12 318.35 249.39 331.14 244.06 344.06 238.09 357.11 231.47 370.29 224.23 383.6 216.43 397.03 208.14 410.57 199.49 424.21 190.58 437.94 181.56 451.74 172.56 465.6 163.72 479.5 155.16 493.42 147 507.34 139.31 521.24 132.17 535.1 125.61 548.9 119.64 562.61 114.24 576.22 109.35 589.71 104.9 603.05 100.8 616.23 96.93 629.24 93.18 642.05 89.42 654.67 85.53 667.07 81.39 679.25 76.9 691.21 71.99 702.95 66.59 714.47 60.66 725.78 54.21 736.88 47.25 747.78 39.82 758.51 31.99 769.07 23.84 779.49 15.47 789.79 6.99 800 -1.48 793.65 -18.94 787.9 -36.4 783.27 -53.87 780.22 -71.33 779.01 -88.8 779.76 -106.26 782.41 -123.73 786.7 -141.19 772.03 -139.05 757.36 -136.97 742.69 -135.11 728.02 -133.59 713.35 -132.52 698.68 -131.98 684.01 -132 669.34 -132.59 654.67 -133.7 640 -135.25 625.33 -137.13 610.66 -139.22 595.99 -141.36 581.32 -143.41 566.65 -145.21 551.98 -146.65 537.31 -147.62 522.64 -148.05 507.96 -147.91 493.29 -147.22 478.62 -146.02 463.95 -144.39 449.28 -142.45 434.61 -140.34 419.94 -138.21 405.27 -136.2 390.6 -134.46 375.93 -133.11 361.26 -132.24 346.59 -131.92 331.92 -132.17 317.25 -132.97 302.58 -134.26 287.91 -135.96 273.24 -137.94 258.57 -140.07 243.9 -142.19 229.23 -144.16 214.56 -145.83 199.89 -147.09 185.22 -147.86 170.55 -148.06 155.88 -147.71 141.21 -146.8 126.54 -145.42 111.87 -143.66 97.2 -141.63 82.52 -139.5 67.85 -137.39 53.18 -135.47 38.51 -133.87 23.84 -132.7 9.17 -132.05 -5.49 -131.95 -20.16 -132.42 -34.83 -133.43 -49.5 -134.89 -64.17 -136.72 -78.84 -138.77 -93.51 -140.92 -108.18 -143 -122.85 -144.86 -132.26 -132.85 -115.19 -114.2 -106.09 -105.47 -97.04 -96.62 -88.01 -87.7 -79.01 -78.73" fill="url(#uuunion-grad2)" filter="url(#uuunion-blur)"></path><path d="M814.07 397.7Q824.23 395.01 834.4 392.49 844.57 390.2 854.74 388.22 864.9 386.62 875.07 385.44 885.24 384.72 895.41 384.5 899.32 399.29 901.9 414.08 902.97 428.88 902.46 443.67 900.4 458.46 896.94 473.26 892.31 488.05 886.84 502.85 880.89 517.64 874.88 532.43 869.22 547.23 864.31 562.02 860.47 576.81 857.98 591.61 857.01 606.4 857.61 621.2 859.76 635.99 863.3 650.78 868 665.58 873.51 680.37 879.48 695.16 885.48 709.96 891.1 724.75 895.96 739.55 899.71 754.34 902.11 769.13 902.99 783.93 902.29 798.72 900.05 813.51 896.42 828.31 891.67 843.1 886.12 857.9 872.26 858.53 858.4 860.45 844.54 863.54 830.69 867.63 816.83 872.46 802.97 877.74 789.12 883.16 775.26 888.38 761.4 893.11 747.54 897.04 733.69 899.95 719.83 901.66 705.97 902.07 692.11 901.15 678.26 898.96 664.4 895.63 650.54 891.35 636.69 886.4 622.83 881.06 608.97 875.66 595.11 870.51 581.26 865.94 567.4 862.21 553.54 859.55 539.69 858.12 525.83 858.01 511.97 859.22 498.11 861.67 484.26 865.23 470.4 869.67 456.54 874.74 442.69 880.12 428.83 885.5 414.97 890.54 401.11 894.95 387.26 898.46 373.4 900.86 359.54 902.01 345.68 901.83 331.83 900.34 317.97 897.62 304.11 893.85 290.26 889.25 276.4 884.08 262.54 878.67 248.68 873.35 234.83 868.42 220.97 864.18 207.11 860.9 193.26 858.77 179.4 857.91 165.54 858.38 151.68 860.15 137.83 863.11 123.97 867.09 110.11 871.84 96.25 877.09 82.4 882.5 68.54 887.77 54.68 892.57 40.83 896.62 26.97 899.66 6.26 896.74 -0.43 881.82 -0.3 871.68 -0.19 861.54 -0.11 851.4 -0.05 841.27 0.22 826.06 0.99 821 13.78 814.14 26.54 806.28 39.26 797.51 51.92 787.95 64.53 777.78 77.08 767.2 89.55 756.41 101.95 745.66 114.26 735.16 126.5 725.13 138.65 715.73 150.72 707.13 162.71 699.43 174.64 692.7 186.5 686.95 198.3 682.16 210.06 678.23 221.79 675.04 233.49 672.45 245.19 670.26 256.89 668.27 268.62 666.26 280.38 664.03 292.19 661.38 304.07 658.13 316.03 654.14 328.09 649.31 340.25 643.58 352.53 636.92 364.94 629.37 377.49 620.99 390.18 611.91 403.03 602.26 416.02 592.22 429.16 581.99 442.46 571.76 455.89 561.72 469.47 552.07 483.17 542.97 496.99 534.55 510.91 526.92 524.92 520.13 539 514.2 553.13 509.11 567.29 504.8 581.45 501.16 595.6 498.05 609.71 495.31 623.76 492.77 637.72 490.24 651.58 487.54 665.3 484.49 678.87 480.93 692.27 476.75 705.48 471.84 718.48 466.15 731.26 459.65 743.82 452.37 756.13 444.36 768.2 435.73 780.03 426.59 791.61 417.09 808.51 402.55 814.07 397.7" fill="url(#uuunion-grad3)" filter="url(#uuunion-blur2)"></path></svg>