<svg xmlns="http://www.w3.org/2000/svg" version="1.1" xmlns:xlink="http://www.w3.org/1999/xlink" xmlns:svgjs="http://svgjs.dev/svgjs" viewBox="0 0 800 800"><defs><filter id="uuunion-blur" x="-100%" y="-100%" width="400%" height="400%" color-interpolation-filters="sRGB">
        <feGaussianBlur in="SourceGraphic" stdDeviation="0 0" result="blur"></feGaussianBlur>
        <feDropShadow stdDeviation="45.53846153846153" in="blur" dx="37" dy="37" flood-color="hsl(30, 100%, 40%)" flood-opacity="1" x="0%" y="0%" width="100%" height="100%"></feDropShadow>
      </filter><filter id="uuunion-blur2" x="-100%" y="-100%" width="400%" height="400%" color-interpolation-filters="sRGB">
        <feGaussianBlur in="SourceGraphic" stdDeviation="0 0" result="blur"></feGaussianBlur>
        <feDropShadow stdDeviation="45.53846153846153" in="blur" dx="-37" dy="-37" flood-color="hsl(30, 100%, 40%)" flood-opacity="1" x="0%" y="0%" width="100%" height="100%"></feDropShadow>
      </filter><linearGradient gradientTransform="rotate(0, 0.5, 0.5)" x1="50%" y1="0%" x2="50%" y2="100%" id="uuunion-grad"><stop stop-color="hsl(0, 0%, 100%)" offset="10%"></stop><stop stop-color="hsl(30, 100%, 40%)" offset="90%"></stop></linearGradient><linearGradient gradientTransform="rotate(360, 0.5, 0.5)" x1="50%" y1="0%" x2="50%" y2="100%" id="uuunion-grad2"><stop stop-color="hsl(0, 0%, 100%)" offset="25%"></stop><stop stop-color="hsl(30, 100%, 40%)" offset="100%"></stop></linearGradient><linearGradient gradientTransform="rotate(85, 0.5, 0.5)" x1="50%" y1="0%" x2="50%" y2="100%" id="uuunion-grad3"><stop stop-color="hsl(0, 0%, 100%)" offset="0%"></stop><stop stop-color="hsl(30, 100%, 40%)" offset="75%"></stop></linearGradient></defs><path d="M-76.92 -79.58Q-62.68 -77.7 -48.44 -76 -34.21 -74.62 -19.97 -73.67 -5.73 -73.23 8.49 -73.32 22.73 -73.94 36.97 -75.04 51.2 -76.54 65.44 -78.31 79.67 -80.22 93.91 -82.11 108.15 -83.83 122.38 -85.24 136.62 -86.24 150.86 -86.74 165.09 -86.71 179.33 -86.14 193.57 -85.08 207.8 -83.62 222.04 -81.86 236.28 -79.96 250.51 -78.07 264.75 -76.32 278.99 -74.87 293.22 -73.83 307.46 -73.27 321.69 -73.25 335.93 -73.77 350.17 -74.79 364.4 -76.21 378.64 -77.94 392.88 -79.83 407.11 -81.74 421.35 -83.5 435.59 -84.99 449.82 -86.08 464.06 -86.69 478.3 -86.76 492.53 -86.29 506.77 -85.33 521 -83.94 535.24 -82.23 549.48 -80.35 563.71 -78.44 577.95 -76.65 592.19 -75.13 606.42 -74 620.66 -73.34 634.9 -73.21 649.13 -73.63 663.37 -74.55 677.61 -75.9 691.84 -77.58 706.08 -79.45 720.31 -81.36 734.55 -83.17 748.79 -84.72 763.02 -85.9 777.26 -86.61 791.5 -86.79 805.73 -86.43 819.97 -85.56 834.21 -84.24 837.34 -69.62 843.62 -54.99 852.6 -40.37 863.6 -25.74 875.81 -11.12 888.33 3.5 900.24 18.12 910.64 32.75 918.79 47.37 924.06 62 926.08 76.62 924.69 91.25 920 105.87 912.35 120.5 902.31 135.12 890.62 149.75 878.14 164.37 865.8 179 854.51 193.62 845.11 208.25 838.28 222.87 834.54 237.5 834.15 252.12 837.16 266.75 843.33 281.37 852.21 296 863.15 310.62 875.33 325.25 887.86 339.87 899.8 354.5 910.28 369.12 918.52 383.75 923.92 398.37 926.07 413 924.81 427.62 920.24 442.25 912.69 456.87 902.73 471.5 891.09 486.12 878.62 500.75 866.26 515.37 854.92 530 845.42 544.62 838.49 559.25 834.62 573.87 834.1 588.5 836.98 603.12 843.04 617.75 851.83 632.37 862.7 647 874.85 661.62 887.38 676.25 899.36 690.87 909.92 705.5 918.26 720.12 923.77 734.75 926.05 749.37 924.92 764 920.47 778.62 913.03 793.25 903.15 807.87 891.55 822.5 879.1 837.13 866.72 851.75 851.94 843.02 837.17 837.23 822.39 834.84 807.61 836.05 792.83 840.75 778.05 848.58 763.27 858.9 748.49 870.91 733.71 883.63 718.94 896.07 704.16 907.23 689.38 916.22 674.6 922.33 659.82 925.07 645.04 924.22 630.26 919.86 615.49 912.32 600.71 902.21 585.93 890.34 571.15 877.64 556.37 865.13 541.59 853.8 526.81 844.55 512.03 838.13 497.26 835.04 482.48 835.52 467.7 839.54 452.92 846.79 438.14 856.67 423.36 868.41 408.58 881.07 393.81 893.65 379.03 905.14 364.25 914.63 349.47 921.36 334.69 924.8 319.91 924.68 305.13 921 290.35 914.06 275.58 904.41 260.8 892.82 246.02 880.2 231.24 867.57 216.46 855.93 201.68 846.2 186.9 839.16 172.12 835.37 157.35 835.13 142.57 838.46 127.79 845.1 113.01 854.51 98.23 865.95 83.45 878.5 68.67 891.18 53.9 902.96 39.12 912.92 24.34 920.26 9.56 924.39 -5.21 924.99 -19.99 922.01 -34.77 915.69 -49.55 906.53 -64.32 895.26 -79.1 882.77 -79.94 867.73 -80.77 852.69 -81.55 837.66 -82.22 822.62 -82.72 807.58 -83.02 792.55 -83.09 777.51 -82.94 762.47 -82.57 747.44 -82.01 732.4 -81.3 717.36 -80.49 702.33 -79.65 687.29 -78.83 672.25 -78.1 657.21 -77.51 642.18 -77.1 627.14 -76.91 612.1 -76.94 597.07 -77.2 582.03 -77.67 566.99 -78.31 551.96 -79.07 536.92 -79.9 521.88 -80.74 506.85 -81.52 491.81 -82.19 476.77 -82.7 461.74 -83.01 446.7 -83.09 431.66 -82.95 416.63 -82.59 401.59 -82.03 386.55 -81.33 371.52 -80.52 356.48 -79.68 341.44 -78.86 326.41 -78.13 311.37 -77.53 296.33 -77.11 281.3 -76.91 266.26 -76.94 251.22 -77.19 236.18 -77.65 221.15 -78.28 206.11 -79.04 191.07 -79.87 176.04 -80.71 161 -81.5 145.96 -82.17 130.93 -82.69 115.89 -83 100.85 -83.09 85.82 -82.96 70.78 -82.6 55.74 -82.06 40.71 -81.36 25.67 -80.56 10.63 -79.71 -4.39 -78.89 -19.43 -78.15 -34.47 -77.55 -49.5 -77.13 -64.54 -76.92 -79.58" fill="url(#uuunion-grad)"></path><path d="M-76.92 -79.58Q-77.13 -64.54 -77.55 -49.5 -78.15 -34.47 -78.89 -19.43 -79.71 -4.39 -80.56 10.63 -81.36 25.67 -82.06 40.71 -82.6 55.74 -82.96 70.78 -83.09 85.82 -83 100.85 -82.69 115.89 -82.17 130.93 -81.5 145.96 -80.71 161 -79.87 176.04 -79.04 191.07 -78.28 206.11 -77.65 221.15 -77.19 236.18 -76.94 251.22 -76.91 266.26 -77.11 281.3 -77.53 296.33 -78.13 311.37 -78.86 326.41 -79.68 341.44 -80.52 356.48 -81.33 371.52 -82.03 386.55 -82.59 401.59 -72.16 406.43 -61.73 411.04 -51.3 415.26 -40.87 418.94 -30.44 421.94 -20.02 424.17 -0.47 425.87 2.91 425.98 15.79 418.54 28.57 409.77 41.22 399.83 53.73 388.95 66.09 377.39 78.29 365.47 90.34 353.5 102.23 341.79 113.98 330.65 125.58 320.32 137.05 311.02 148.41 302.9 159.67 296.02 170.86 290.4 182.01 285.97 193.14 282.62 204.28 280.15 215.45 278.33 226.7 276.92 238.05 275.63 249.53 274.19 261.17 272.34 272.99 269.84 285.03 266.51 297.3 262.2 309.82 256.83 322.6 250.39 335.67 242.9 349.02 234.46 362.65 225.22 376.57 215.37 390.75 205.11 405.2 194.68 419.89 184.32 434.8 174.25 449.89 164.67 465.15 155.75 480.52 147.62 495.98 140.36 511.47 134 526.96 128.52 542.4 123.85 557.74 119.87 572.93 116.44 587.92 113.39 602.68 110.53 617.15 107.66 631.3 104.59 645.08 101.16 658.48 97.23 671.44 92.67 683.96 87.43 696.02 81.47 707.61 74.8 718.71 67.48 729.35 59.58 739.51 51.22 749.23 42.54 758.53 33.69 767.44 24.82 775.99 16.07 784.23 7.58 792.22 -0.52 800 -8.17 786.86 -25.1 775.04 -42.03 765.72 -58.95 759.85 -75.88 758 -92.81 760.38 -109.74 764.33 -134.71 747.46 -141.69 732.98 -140.49 718.5 -139.26 704.03 -138.08 689.55 -137.06 675.07 -136.27 660.6 -135.76 646.12 -135.6 631.64 -135.77 617.16 -136.28 602.69 -137.08 588.21 -138.11 573.73 -139.29 559.25 -140.52 544.78 -141.71 530.3 -142.77 515.82 -143.61 501.34 -144.16 486.87 -144.39 472.39 -144.27 457.91 -143.82 443.44 -143.06 428.96 -142.07 414.48 -140.91 400 -139.68 385.53 -138.47 371.05 -137.39 356.57 -136.51 342.09 -135.9 327.62 -135.61 313.14 -135.67 298.66 -136.07 284.18 -136.78 269.71 -137.74 255.23 -138.88 240.75 -140.1 226.28 -141.32 211.8 -142.43 197.32 -143.35 182.84 -144.01 168.37 -144.35 153.89 -144.35 139.41 -144.01 124.93 -143.35 110.46 -142.43 95.98 -141.32 81.5 -140.1 67.02 -138.87 52.55 -137.74 38.07 -136.78 23.59 -136.07 9.12 -135.67 -5.35 -135.61 -19.83 -135.9 -34.31 -136.51 -48.78 -137.39 -63.26 -138.48 -77.74 -139.68 -92.22 -140.91 -106.69 -142.07 -121.17 -143.07 -129.84 -130.83 -112.45 -113.32 -103.42 -105.13 -94.5 -96.75 -85.67 -88.23 -76.92 -79.58" fill="url(#uuunion-grad2)" filter="url(#uuunion-blur)"></path><path d="M835.1 378.74Q845.53 376.31 855.95 374.72 866.38 374.02 876.81 374.25 887.24 375.4 897.67 377.41 908.1 380.23 918.52 383.75 923.92 398.37 926.07 413 924.81 427.62 920.24 442.25 912.69 456.87 902.73 471.5 891.09 486.12 878.62 500.75 866.26 515.37 854.92 530 845.42 544.62 838.49 559.25 834.62 573.87 834.1 588.5 836.98 603.12 843.04 617.75 851.83 632.37 862.7 647 874.85 661.62 887.38 676.25 899.36 690.87 909.92 705.5 918.26 720.12 923.77 734.75 926.05 749.37 924.92 764 920.47 778.62 913.03 793.25 903.15 807.87 891.55 822.5 879.1 837.13 866.72 851.75 853.16 843.63 839.6 837.96 826.04 835.1 812.47 835.26 798.91 838.41 785.35 844.36 771.79 852.69 758.22 862.86 744.66 874.18 731.1 885.88 717.54 897.2 703.97 907.35 690.41 915.68 676.85 921.61 663.28 924.74 649.72 924.88 636.16 922 622.6 916.31 609.03 908.18 595.47 898.16 581.91 886.92 568.35 875.22 554.78 863.84 541.22 853.54 527.66 845.01 514.1 838.84 500.53 835.42 486.97 834.99 473.41 837.58 459.85 843.02 446.28 850.94 432.72 860.81 419.16 871.96 405.6 883.65 392.03 895.1 378.47 905.53 364.91 914.25 351.35 920.68 337.78 924.37 324.22 925.09 310.66 922.78 297.1 917.6 283.53 909.9 269.97 900.2 256.41 889.13 242.85 877.46 229.28 865.95 215.72 855.39 202.16 846.48 188.6 839.81 175.03 835.85 161.47 834.84 147.91 836.86 134.35 841.78 120.78 849.25 107.22 858.8 93.66 869.76 80.1 881.41 66.53 892.96 52.97 903.65 39.41 912.75 25.85 919.65 5.59 919.34 -0.93 904.39 -0.76 893.99 -0.59 883.59 -0.45 873.19 -0.32 862.79 0.09 847.19 0.91 842 14.06 834.34 27.24 824.46 40.41 812.59 53.55 799.06 66.64 784.3 79.66 768.78 92.57 753.02 105.37 737.56 118.02 722.91 130.52 709.5 142.86 697.73 155.01 687.87 166.98 680.11 178.77 674.49 190.37 670.96 201.8 669.33 213.06 669.34 224.16 670.61 235.14 672.71 246 675.16 256.77 677.5 267.48 679.23 278.17 679.93 288.85 679.24 299.58 676.85 310.38 672.59 321.28 666.37 332.33 658.21 343.55 648.25 354.98 636.72 366.64 623.93 378.58 610.26 390.8 596.14 403.33 582 416.18 568.27 429.37 555.38 442.9 543.66 456.77 533.41 470.98 524.82 485.51 518 500.35 512.94 515.48 509.57 530.87 507.68 546.48 507.03 562.29 507.27 578.24 508.04 594.29 508.94 610.4 509.58 626.51 509.57 642.57 508.59 658.53 506.36 674.33 502.68 689.92 497.43 705.24 490.59 720.26 482.21 734.91 472.43 749.15 461.49 762.96 449.65 776.29 437.25 789.12 424.62 801.42 412.14 813.19 400.13 829.76 383.82 835.1 378.74" fill="url(#uuunion-grad3)" filter="url(#uuunion-blur2)"></path></svg>