<?xml version="1.0" encoding="UTF-8"?> <svg xmlns="http://www.w3.org/2000/svg" width="60" height="60" viewBox="0 0 60 60" fill="none"><rect width="60" height="60" rx="18" fill="url(#paint0_linear_3765_22332)"></rect><path d="M37.4621 18.7571L39.8762 16.343C40.4126 15.8065 40.027 14.918 39.2894 14.918H28.7445C28.2751 14.918 27.9062 15.2868 27.9062 15.7562V26.3011C27.9062 27.0555 28.8115 27.4243 29.3312 26.8879L31.7621 24.457C35.0647 26.9046 37.2106 30.794 37.2106 35.2199C37.2106 36.3263 37.0765 37.416 36.8082 38.4387C36.6071 39.2769 37.6129 39.8804 38.2165 39.2601C40.6976 36.6952 42.24 33.2081 42.24 29.3523C42.24 25.1444 40.3791 21.3723 37.4621 18.7571Z" fill="white"></path><path d="M29.8306 33.1089L27.3997 35.523C24.0971 33.0754 21.9512 29.186 21.9512 24.7601C21.9512 23.6537 22.0854 22.564 22.3536 21.5413C22.5548 20.7031 21.5489 20.0996 20.9454 20.7199C18.4642 23.2849 16.9219 26.7719 16.9219 30.6277C16.9219 34.8524 18.766 38.6244 21.683 41.2397L19.2689 43.6538C18.7324 44.1903 19.118 45.0788 19.8557 45.0788H30.4006C30.87 45.0788 31.2388 44.71 31.2388 44.2406V33.6957C31.2556 32.958 30.3503 32.5724 29.8306 33.1089Z" fill="white"></path><defs><linearGradient id="paint0_linear_3765_22332" x1="11.2961" y1="54.5216" x2="92.0568" y2="25.148" gradientUnits="userSpaceOnUse"><stop stop-color="#FF4F28"></stop><stop offset="1" stop-color="#D3FF74"></stop></linearGradient></defs></svg> 