<?xml version="1.0" encoding="UTF-8"?> <svg xmlns="http://www.w3.org/2000/svg" width="40" height="40" viewBox="0 0 40 40" fill="none"><rect width="40" height="40" rx="8" fill="#FF4F28"></rect><path d="M29.8008 16.0039C29.8008 16.0039 29.6055 14.625 29.0039 14.0195C28.2422 13.2227 27.3906 13.2187 27 13.1719C24.2031 12.9687 20.0039 12.9688 20.0039 12.9688H19.9961C19.9961 12.9688 15.7969 12.9687 13 13.1719C12.6094 13.2187 11.7578 13.2227 10.9961 14.0195C10.3945 14.625 10.2031 16.0039 10.2031 16.0039C10.2031 16.0039 10 17.625 10 19.2422V20.7578C10 22.375 10.1992 23.9961 10.1992 23.9961C10.1992 23.9961 10.3945 25.375 10.9922 25.9805C11.7539 26.7773 12.7539 26.75 13.1992 26.8359C14.8008 26.9883 20 27.0352 20 27.0352C20 27.0352 24.2031 27.0273 27 26.8281C27.3906 26.7812 28.2422 26.7773 29.0039 25.9805C29.6055 25.375 29.8008 23.9961 29.8008 23.9961C29.8008 23.9961 30 22.3789 30 20.7578V19.2422C30 17.625 29.8008 16.0039 29.8008 16.0039ZM17.9336 22.5977V16.9766L23.3359 19.7969L17.9336 22.5977Z" fill="white"></path></svg> 